<svg width="22" height="22" viewBox="0 0 22 22" fill="none" xmlns="http://www.w3.org/2000/svg">
<mask id="mask0_3_474" style="mask-type:luminance" maskUnits="userSpaceOnUse" x="0" y="0" width="22" height="22">
<path d="M22 0H0V22H22V0Z" fill="white"/>
</mask>
<g mask="url(#mask0_3_474)">
<path d="M6.41658 22.001C7.4291 22.001 8.24991 21.18 8.24991 20.167C8.24991 19.155 7.4291 18.334 6.41658 18.334C5.40406 18.334 4.58325 19.155 4.58325 20.167C4.58325 21.18 5.40406 22.001 6.41658 22.001Z" fill="#5C5C5C"/>
<path d="M15.5833 22.001C16.5959 22.001 17.4167 21.18 17.4167 20.167C17.4167 19.155 16.5959 18.334 15.5833 18.334C14.5708 18.334 13.75 19.155 13.75 20.167C13.75 21.18 14.5708 22.001 15.5833 22.001Z" fill="#5C5C5C"/>
<path d="M21.0687 5.517C20.4234 4.899 19.5596 4.56399 18.667 4.58299H5.18283L4.94175 2.69299C4.85421 1.95099 4.49751 1.267 3.93928 0.770996C3.38105 0.274996 2.66009 0 1.91308 0H1.375C1.01033 0 0.660591 0.145 0.402728 0.403C0.144866 0.661 0 1.01 0 1.375C0 1.74 0.144866 2.089 0.402728 2.347C0.660591 2.605 1.01033 2.75 1.375 2.75H1.91308C1.98807 2.751 2.06011 2.779 2.11529 2.83C2.17048 2.881 2.2049 2.94999 2.21192 3.02499L3.58692 13.804C3.67364 14.547 4.03001 15.231 4.58834 15.728C5.14668 16.225 5.86809 16.5 6.61558 16.5H15.8941C16.9978 16.499 18.0708 16.137 18.9485 15.467C19.8261 14.798 20.4598 13.859 20.7524 12.795L21.8946 8.64101C22.0468 8.09401 22.0506 7.516 21.9054 6.967C21.7603 6.418 21.4715 5.917 21.0687 5.517ZM18.1042 12.066C17.97 12.549 17.6813 12.976 17.2823 13.28C16.8833 13.584 16.3957 13.749 15.8941 13.75H6.61558C6.54063 13.749 6.4686 13.721 6.41352 13.67C6.35844 13.619 6.32427 13.55 6.31767 13.475L5.53392 7.33299H18.8045C18.8753 7.33299 18.9453 7.349 19.0089 7.38C19.0725 7.41101 19.1281 7.45599 19.1713 7.51199C19.2144 7.56799 19.244 7.634 19.2577 7.703C19.2713 7.773 19.2687 7.84399 19.25 7.91299L18.1042 12.066Z" fill="#5C5C5C"/>
</g>
</svg>
