<svg width="28" height="28" viewBox="0 0 28 28" fill="none" xmlns="http://www.w3.org/2000/svg">
<mask id="mask0_3_481" style="mask-type:luminance" maskUnits="userSpaceOnUse" x="0" y="0" width="28" height="28">
<path d="M28 0H0V28H28V0Z" fill="white"/>
</mask>
<g mask="url(#mask0_3_481)">
<path d="M4.66669 24.5V9.33301C4.66669 8.40501 5.03544 7.515 5.69181 6.858C6.34819 6.202 7.23843 5.83301 8.16669 5.83301H19.8334C20.7616 5.83301 21.6518 6.202 22.3082 6.858C22.9646 7.515 23.3334 8.40501 23.3334 9.33301V16.333C23.3334 17.262 22.9646 18.152 22.3082 18.808C21.6518 19.465 20.7616 19.833 19.8334 19.833H9.33335L4.66669 24.5Z" stroke="#5C5C5C" stroke-width="2.75" stroke-linecap="round" stroke-linejoin="round"/>
<path d="M9.33331 10.5H18.6666" stroke="#5C5C5C" stroke-width="2.75" stroke-linecap="round" stroke-linejoin="round"/>
<path d="M9.33331 15.167H16.3333" stroke="#5C5C5C" stroke-width="2.75" stroke-linecap="round" stroke-linejoin="round"/>
</g>
</svg>
