<svg width="22" height="22" viewBox="0 0 22 22" fill="none" xmlns="http://www.w3.org/2000/svg">
<mask id="mask0_3_463" style="mask-type:luminance" maskUnits="userSpaceOnUse" x="0" y="0" width="22" height="22">
<path d="M22 0H0V22H22V0Z" fill="white"/>
</mask>
<g mask="url(#mask0_3_463)">
<path d="M21.0601 7.97068L14.5646 1.47519C12.5943 -0.490062 9.40512 -0.490062 7.43479 1.47519L0.939303 7.97068C0.335679 8.57108 -0.00265615 9.388 -0.000292878 10.2394V19.7526C0.00172665 20.9943 1.0084 22.0001 2.25015 22.0012H19.7493C20.991 22.0002 21.9976 20.9943 21.9997 19.7526V10.2394C22.0021 9.388 21.6637 8.57108 21.0601 7.97068ZM19.2497 19.2512H14.6664V16.3343C14.6664 14.4014 13.0994 12.8345 11.1665 12.8345H10.8329C8.89998 12.8345 7.33304 14.4014 7.33304 16.3343V19.2512H2.7497V10.2394C2.75 10.1179 2.79804 10.0013 2.88355 9.91493L9.37904 3.41944C10.2739 2.52436 11.7249 2.52419 12.6199 3.41901C12.6197 3.41888 12.6201 3.41914 12.6199 3.41901L19.1159 9.91493C19.2013 10.0013 19.2494 10.1179 19.2497 10.2394V19.2512Z" fill="#5C5C5C"/>
</g>
</svg>
