<svg width="22" height="22" viewBox="0 0 22 22" fill="none" xmlns="http://www.w3.org/2000/svg">
<mask id="mask0_3_494" style="mask-type:luminance" maskUnits="userSpaceOnUse" x="0" y="0" width="22" height="22">
<path d="M22 0H0V22H22V0Z" fill="white"/>
</mask>
<g mask="url(#mask0_3_494)">
<path d="M19.25 22.001H16.5V17.417C16.5 16.931 16.3068 16.465 15.963 16.121C15.6192 15.777 15.1529 15.584 14.6667 15.584H7.33333C6.8471 15.584 6.38079 15.777 6.03697 16.121C5.69315 16.465 5.5 16.931 5.5 17.417V22.001H2.75V17.417C2.75146 16.202 3.23481 15.037 4.09403 14.178C4.95326 13.319 6.1182 12.835 7.33333 12.834H14.6667C15.8818 12.835 17.0467 13.319 17.906 14.178C18.7652 15.037 19.2485 16.202 19.25 17.417V22.001Z" fill="#5C5C5C"/>
<path d="M11.0001 11C9.91227 11 8.8489 10.677 7.94443 10.073C7.03996 9.46901 6.33501 8.61002 5.91873 7.60502C5.50244 6.60002 5.39353 5.49401 5.60574 4.42701C5.81796 3.36001 6.34179 2.38 7.11098 1.611C7.88017 0.842002 8.86017 0.317997 9.92707 0.105997C10.994 -0.107003 12.0998 0.00201604 13.1048 0.419016C14.1098 0.835016 14.9688 1.54001 15.5731 2.44401C16.1775 3.34901 16.5001 4.41201 16.5001 5.50001C16.4986 6.95801 15.9187 8.356 14.8875 9.387C13.8564 10.419 12.4583 10.998 11.0001 11ZM11.0001 2.75001C10.4562 2.75001 9.92448 2.91102 9.47225 3.21302C9.02001 3.51602 8.66754 3.94501 8.45939 4.44801C8.25125 4.95001 8.19679 5.50302 8.3029 6.03602C8.40901 6.57002 8.67093 7.06001 9.05552 7.44401C9.44011 7.82901 9.93012 8.091 10.4636 8.197C10.997 8.303 11.5499 8.24899 12.0524 8.04099C12.5549 7.83199 12.9844 7.48002 13.2866 7.02802C13.5888 6.57602 13.7501 6.04401 13.7501 5.50001C13.7501 4.77101 13.4603 4.071 12.9446 3.555C12.4289 3.04 11.7294 2.75001 11.0001 2.75001Z" fill="#5C5C5C"/>
</g>
</svg>
