<svg width="22" height="22" viewBox="0 0 22 22" fill="none" xmlns="http://www.w3.org/2000/svg">
<mask id="mask0_3_469" style="mask-type:luminance" maskUnits="userSpaceOnUse" x="0" y="0" width="22" height="22">
<path d="M22 0H0V22H22V0Z" fill="white"/>
</mask>
<g mask="url(#mask0_3_469)">
<path d="M15.8125 1.697C14.8723 1.706 13.9472 1.935 13.1115 2.366C12.2758 2.797 11.5527 3.41699 11 4.17799C10.4473 3.41699 9.72411 2.797 8.88841 2.366C8.0527 1.935 7.12768 1.706 6.18747 1.697C4.48409 1.765 2.87694 2.504 1.71745 3.754C0.557955 5.004 -0.0595468 6.66201 -3.18829e-05 8.36501C-3.18829e-05 12.538 4.28447 17.005 7.8833 20.018C8.75719 20.753 9.86233 21.156 11.0041 21.156C12.1459 21.156 13.251 20.753 14.1249 20.018C17.7201 17.005 22.0082 12.538 22.0082 8.36501C22.0677 6.66001 21.4491 5.001 20.2878 3.751C19.1266 2.501 17.5173 1.762 15.8125 1.697ZM12.3539 17.911C11.9748 18.23 11.4951 18.405 10.9995 18.405C10.5039 18.405 10.0242 18.23 9.64513 17.911C5.26347 14.237 2.74997 10.758 2.74997 8.36501C2.69152 7.39101 3.01973 6.43301 3.66332 5.69901C4.30691 4.96601 5.21394 4.51501 6.18747 4.44701C7.161 4.51501 8.06803 4.96601 8.71162 5.69901C9.35521 6.43301 9.68341 7.39101 9.62497 8.36501C9.62497 8.73001 9.76983 9.08 10.0277 9.338C10.2856 9.595 10.6353 9.74001 11 9.74001C11.3646 9.74001 11.7144 9.595 11.9722 9.338C12.2301 9.08 12.375 8.73001 12.375 8.36501C12.3165 7.39101 12.6447 6.43301 13.2883 5.69901C13.9319 4.96601 14.8389 4.51501 15.8125 4.44701C16.786 4.51501 17.693 4.96601 18.3366 5.69901C18.9802 6.43301 19.3084 7.39101 19.25 8.36501C19.25 10.758 16.7365 14.237 12.3539 17.911Z" fill="#5C5C5C"/>
</g>
</svg>
