<svg width="28" height="28" viewBox="0 0 28 28" fill="none" xmlns="http://www.w3.org/2000/svg">
<mask id="mask0_3_488" style="mask-type:luminance" maskUnits="userSpaceOnUse" x="0" y="0" width="28" height="28">
<path d="M28 0H0V28H28V0Z" fill="white"/>
</mask>
<g mask="url(#mask0_3_488)">
<path d="M12.0458 5.036C12.5428 2.988 15.4572 2.988 15.9542 5.036C16.0287 5.344 16.1749 5.62999 16.3808 5.87099C16.5867 6.11099 16.8465 6.29998 17.1391 6.42098C17.4317 6.54198 17.7487 6.59298 18.0644 6.56798C18.3801 6.54398 18.6856 6.44499 18.956 6.27999C20.7562 5.18299 22.8177 7.244 21.721 9.045C21.5564 9.315 21.4579 9.62099 21.4334 9.93599C21.409 10.252 21.4594 10.569 21.5804 10.861C21.7015 11.153 21.8899 11.413 22.1302 11.619C22.3705 11.825 22.656 11.971 22.9635 12.046C25.0122 12.543 25.0122 15.457 22.9635 15.954C22.6557 16.029 22.3699 16.175 22.1293 16.381C21.8887 16.587 21.7002 16.847 21.579 17.139C21.4578 17.432 21.4073 17.749 21.4318 18.064C21.4563 18.38 21.555 18.686 21.7198 18.956C22.8165 20.756 20.7562 22.818 18.9548 21.721C18.6846 21.556 18.3793 21.458 18.0638 21.433C17.7483 21.409 17.4314 21.459 17.1391 21.58C16.8467 21.702 16.587 21.89 16.3811 22.13C16.1752 22.37 16.0289 22.656 15.9542 22.963C15.4572 25.012 12.5428 25.012 12.0458 22.963C11.9713 22.656 11.8251 22.37 11.6192 22.129C11.4133 21.889 11.1535 21.7 10.8609 21.579C10.5683 21.458 10.2513 21.407 9.93558 21.432C9.61986 21.456 9.31438 21.555 9.044 21.72C7.24383 22.817 5.18233 20.756 6.279 18.955C6.44362 18.685 6.54214 18.379 6.56656 18.064C6.59099 17.748 6.54062 17.431 6.41955 17.139C6.29848 16.847 6.11014 16.587 5.86982 16.381C5.6295 16.175 5.34399 16.029 5.0365 15.954C2.98783 15.457 2.98783 12.543 5.0365 12.046C5.34427 11.971 5.63008 11.825 5.87067 11.619C6.11126 11.413 6.29983 11.153 6.42104 10.861C6.54224 10.568 6.59266 10.251 6.56818 9.93599C6.5437 9.61999 6.44502 9.314 6.28017 9.044C5.1835 7.244 7.24383 5.18198 9.04517 6.27898C10.2118 6.98798 11.7238 6.361 12.0458 5.036Z" stroke="#5C5C5C" stroke-width="2.75" stroke-linecap="round" stroke-linejoin="round"/>
<path d="M14 17.5C15.933 17.5 17.5 15.933 17.5 14C17.5 12.067 15.933 10.5 14 10.5C12.067 10.5 10.5 12.067 10.5 14C10.5 15.933 12.067 17.5 14 17.5Z" stroke="#5C5C5C" stroke-width="2.75" stroke-linecap="round" stroke-linejoin="round"/>
</g>
</svg>
